TITLE ""
FILE "2Q_t_0218-0235.mp3" MP3
  TRACK 01 AUDIO
    TITLE "2Q_t_0218-0235_01"
    INDEX 01 00:00:00
  TRACK 02 AUDIO
    TITLE "2Q_t_0218-0235_02"
    INDEX 01 00:01:16
  TRACK 03 AUDIO
    TITLE "2Q_t_0218-0235_03"
    INDEX 01 00:01:61
  TRACK 04 AUDIO
    TITLE "2Q_t_0218-0235_04"
    INDEX 01 00:03:30
  TRACK 05 AUDIO
    TITLE "2Q_t_0218-0235_05"
    INDEX 01 00:03:73
  TRACK 06 AUDIO
    TITLE "2Q_t_0218-0235_06"
    INDEX 01 00:05:10
  TRACK 07 AUDIO
    TITLE "2Q_t_0218-0235_07"
    INDEX 01 00:05:62
  TRACK 08 AUDIO
    TITLE "2Q_t_0218-0235_08"
    INDEX 01 00:08:45
  TRACK 09 AUDIO
    TITLE "2Q_t_0218-0235_09"
    INDEX 01 00:09:13
  TRACK 10 AUDIO
    TITLE "2Q_t_0218-0235_10"
    INDEX 01 00:10:24
  TRACK 11 AUDIO
    TITLE "2Q_t_0218-0235_11"
    INDEX 01 00:10:69
  TRACK 12 AUDIO
    TITLE "2Q_t_0218-0235_12"
    INDEX 01 00:14:55
  TRACK 13 AUDIO
    TITLE "2Q_t_0218-0235_13"
    INDEX 01 00:15:24
  TRACK 14 AUDIO
    TITLE "2Q_t_0218-0235_14"
    INDEX 01 00:16:29
  TRACK 15 AUDIO
    TITLE "2Q_t_0218-0235_15"
    INDEX 01 00:17:01
  TRACK 16 AUDIO
    TITLE "2Q_t_0218-0235_16"
    INDEX 01 00:19:68
  TRACK 17 AUDIO
    TITLE "2Q_t_0218-0235_17"
    INDEX 01 00:20:38
  TRACK 18 AUDIO
    TITLE "2Q_t_0218-0235_18"
    INDEX 01 00:21:34
  TRACK 19 AUDIO
    TITLE "2Q_t_0218-0235_19"
    INDEX 01 00:22:08
  TRACK 20 AUDIO
    TITLE "2Q_t_0218-0235_20"
    INDEX 01 00:25:73
  TRACK 21 AUDIO
    TITLE "2Q_t_0218-0235_21"
    INDEX 01 00:26:41
  TRACK 22 AUDIO
    TITLE "2Q_t_0218-0235_22"
    INDEX 01 00:27:56
  TRACK 23 AUDIO
    TITLE "2Q_t_0218-0235_23"
    INDEX 01 00:28:28
  TRACK 24 AUDIO
    TITLE "2Q_t_0218-0235_24"
    INDEX 01 00:30:58
  TRACK 25 AUDIO
    TITLE "2Q_t_0218-0235_25"
    INDEX 01 00:31:28
  TRACK 26 AUDIO
    TITLE "2Q_t_0218-0235_26"
    INDEX 01 00:32:44
  TRACK 27 AUDIO
    TITLE "2Q_t_0218-0235_27"
    INDEX 01 00:33:18
  TRACK 28 AUDIO
    TITLE "2Q_t_0218-0235_28"
    INDEX 01 00:35:54
  TRACK 29 AUDIO
    TITLE "2Q_t_0218-0235_29"
    INDEX 01 00:36:24
  TRACK 30 AUDIO
    TITLE "2Q_t_0218-0235_30"
    INDEX 01 00:37:47
  TRACK 31 AUDIO
    TITLE "2Q_t_0218-0235_31"
    INDEX 01 00:38:19
  TRACK 32 AUDIO
    TITLE "2Q_t_0218-0235_32"
    INDEX 01 00:40:61
  TRACK 33 AUDIO
    TITLE "2Q_t_0218-0235_33"
    INDEX 01 00:41:31
  TRACK 34 AUDIO
    TITLE "2Q_t_0218-0235_34"
    INDEX 01 00:42:46
  TRACK 35 AUDIO
    TITLE "2Q_t_0218-0235_35"
    INDEX 01 00:43:20
  TRACK 36 AUDIO
    TITLE "2Q_t_0218-0235_36"
    INDEX 01 00:47:35
  TRACK 37 AUDIO
    TITLE "2Q_t_0218-0235_37"
    INDEX 01 00:48:05
  TRACK 38 AUDIO
    TITLE "2Q_t_0218-0235_38"
    INDEX 01 00:49:07
  TRACK 39 AUDIO
    TITLE "2Q_t_0218-0235_39"
    INDEX 01 00:49:62
  TRACK 40 AUDIO
    TITLE "2Q_t_0218-0235_40"
    INDEX 01 00:52:15
  TRACK 41 AUDIO
    TITLE "2Q_t_0218-0235_41"
    INDEX 01 00:52:58
  TRACK 42 AUDIO
    TITLE "2Q_t_0218-0235_42"
    INDEX 01 00:54:04
  TRACK 43 AUDIO
    TITLE "2Q_t_0218-0235_43"
    INDEX 01 00:54:51
  TRACK 44 AUDIO
    TITLE "2Q_t_0218-0235_44"
    INDEX 01 00:57:28
  TRACK 45 AUDIO
    TITLE "2Q_t_0218-0235_45"
    INDEX 01 00:57:71
  TRACK 46 AUDIO
    TITLE "2Q_t_0218-0235_46"
    INDEX 01 00:59:03
  TRACK 47 AUDIO
    TITLE "2Q_t_0218-0235_47"
    INDEX 01 00:59:48
  TRACK 48 AUDIO
    TITLE "2Q_t_0218-0235_48"
    INDEX 01 01:02:39
  TRACK 49 AUDIO
    TITLE "2Q_t_0218-0235_49"
    INDEX 01 01:03:09
  TRACK 50 AUDIO
    TITLE "2Q_t_0218-0235_50"
    INDEX 01 01:04:22
  TRACK 51 AUDIO
    TITLE "2Q_t_0218-0235_51"
    INDEX 01 01:04:67
  TRACK 52 AUDIO
    TITLE "2Q_t_0218-0235_52"
    INDEX 01 01:07:32
  TRACK 53 AUDIO
    TITLE "2Q_t_0218-0235_53"
    INDEX 01 01:08:02
  TRACK 54 AUDIO
    TITLE "2Q_t_0218-0235_54"
    INDEX 01 01:09:31
  TRACK 55 AUDIO
    TITLE "2Q_t_0218-0235_55"
    INDEX 01 01:10:03
  TRACK 56 AUDIO
    TITLE "2Q_t_0218-0235_56"
    INDEX 01 01:14:18
  TRACK 57 AUDIO
    TITLE "2Q_t_0218-0235_57"
    INDEX 01 01:14:62
  TRACK 58 AUDIO
    TITLE "2Q_t_0218-0235_58"
    INDEX 01 01:15:59
  TRACK 59 AUDIO
    TITLE "2Q_t_0218-0235_59"
    INDEX 01 01:16:29
  TRACK 60 AUDIO
    TITLE "2Q_t_0218-0235_60"
    INDEX 01 01:18:59
  TRACK 61 AUDIO
    TITLE "2Q_t_0218-0235_61"
    INDEX 01 01:19:27
  TRACK 62 AUDIO
    TITLE "2Q_t_0218-0235_62"
    INDEX 01 01:20:45
  TRACK 63 AUDIO
    TITLE "2Q_t_0218-0235_63"
    INDEX 01 01:21:19
  TRACK 64 AUDIO
    TITLE "2Q_t_0218-0235_64"
    INDEX 01 01:24:15
  TRACK 65 AUDIO
    TITLE "2Q_t_0218-0235_65"
    INDEX 01 01:24:62
  TRACK 66 AUDIO
    TITLE "2Q_t_0218-0235_66"
    INDEX 01 01:26:04
  TRACK 67 AUDIO
    TITLE "2Q_t_0218-0235_67"
    INDEX 01 01:26:53
  TRACK 68 AUDIO
    TITLE "2Q_t_0218-0235_68"
    INDEX 01 01:29:47
  TRACK 69 AUDIO
    TITLE "2Q_t_0218-0235_69"
    INDEX 01 01:30:16
  TRACK 70 AUDIO
    TITLE "2Q_t_0218-0235_70"
    INDEX 01 01:31:37
  TRACK 71 AUDIO
    TITLE "2Q_t_0218-0235_71"
    INDEX 01 01:32:07
  TRACK 72 AUDIO
    TITLE "2Q_t_0218-0235_72"
    INDEX 01 01:34:35
